<svg xmlns="http://www.w3.org/2000/svg" viewBox="0 0 256 256">
  <circle cx="128" cy="128" r="128" fill="#F7CA45"/>
  <path d="M 146 64 L 102 142 L 124 142 L 110 192 L 154 114 L 132 114 Z" fill="#FFFFFF"/>
  <g fill="none" stroke="#FFFFFF" stroke-width="10" stroke-linecap="round">
    <path d="M 143.97 37.40 A 92 92 0 0 1 219.94 131.21"/>
    <path d="M 198.48 187.14 A 92 92 0 0 1 79.25 206.02"/>
    <path d="M 41.55 159.47 A 92 92 0 0 1 84.81 46.77"/>
  </g>
  <g fill="#FFFFFF">
    <polygon points="218.96,159.19 233.93,131.70 205.95,130.72"/>
    <polygon points="55.50,191.18 71.83,217.89 86.67,194.15"/>
    <polygon points="109.53,33.63 78.24,34.41 91.38,59.13"/>
  </g>
</svg>
